<?xml version="1.0" standalone="no"?>
<!DOCTYPE svg PUBLIC "-//W3C//DTD SVG 20010904//EN"
 "http://www.w3.org/TR/2001/REC-SVG-20010904/DTD/svg10.dtd">
<svg version="1.0" xmlns="http://www.w3.org/2000/svg"
 width="256.000000pt" height="256.000000pt" viewBox="0 0 256.000000 256.000000"
 preserveAspectRatio="xMidYMid meet">
<metadata>
Created by potrace 1.11, written by Peter Selinger 2001-2013
</metadata>
<g transform="translate(0.000000,256.000000) scale(0.100000,-0.100000)"
fill="#000000" stroke="none">
<path d="M2088 2443 c7 -3 16 -2 19 1 4 3 -2 6 -13 5 -11 0 -14 -3 -6 -6z"/>
<path d="M2203 2397 c125 -70 221 -203 246 -341 13 -72 15 -376 2 -376 -5 0
-11 78 -13 173 -4 143 -9 182 -27 232 -55 153 -182 269 -336 310 -88 23 -1502
23 -1590 0 -177 -46 -322 -201 -354 -379 -6 -33 -11 -113 -11 -178 0 -72 -4
-118 -10 -118 -15 0 -14 -1192 1 -1262 35 -166 158 -307 325 -370 l59 -23 772
-3 c854 -3 846 -4 967 61 127 67 229 208 256 352 13 73 4 1504 -11 1578 -26
133 -135 281 -256 345 -79 42 -95 42 -20 -1z m-1578 -347 c14 5 79 10 143 10
l117 0 130 -74 c138 -78 255 -166 255 -191 0 -8 5 -15 10 -15 6 0 10 7 10 15
0 25 117 113 255 191 l130 74 117 0 c64 0 129 -5 143 -10 22 -8 34 -6 61 11
l34 21 0 -559 0 -558 -272 -216 -273 -216 -3 604 c-2 568 -3 604 -20 601 -16
-3 -17 -44 -22 -623 l-5 -619 -45 -9 c-49 -9 -241 -3 -259 7 -8 5 -11 190 -11
620 0 609 -1 636 -32 636 -4 0 -9 -274 -10 -609 l-3 -608 -272 216 -273 216 0
558 0 559 34 -21 c27 -17 39 -19 61 -11z"/>
</g>
</svg>
