<?xml version="1.0" standalone="no"?>
<!DOCTYPE svg PUBLIC "-//W3C//DTD SVG 20010904//EN"
 "http://www.w3.org/TR/2001/REC-SVG-20010904/DTD/svg10.dtd">
<svg version="1.0" xmlns="http://www.w3.org/2000/svg"
 width="256.000000pt" height="256.000000pt" viewBox="0 0 256.000000 256.000000"
 preserveAspectRatio="xMidYMid meet">
<metadata>
Created by potrace 1.11, written by Peter Selinger 2001-2013
</metadata>
<g transform="translate(0.000000,256.000000) scale(0.100000,-0.100000)"
fill="#000000" stroke="none">
<path d="M553 2453 c9 -2 23 -2 30 0 6 3 -1 5 -18 5 -16 0 -22 -2 -12 -5z"/>
<path d="M2032 2450 c37 -5 75 -13 85 -20 14 -8 -54 -10 -282 -6 -165 3 -541
9 -836 12 l-536 7 -85 -41 c-140 -68 -240 -197 -267 -346 -15 -83 -15 -1535 0
-1608 35 -170 167 -319 339 -380 l65 -23 785 0 c782 0 785 0 855 22 166 52
287 173 337 337 21 68 21 76 15 835 -6 841 -5 829 -68 954 -77 151 -268 270
-429 266 -39 -1 -37 -3 22 -9z m-1162 -568 l205 -120 3 -616 2 -616 -275 218
-275 217 0 557 0 557 68 -38 c37 -21 159 -93 272 -159z m1160 -359 l0 -558
-275 -217 -275 -218 2 616 3 616 255 149 c140 81 262 153 270 158 8 5 16 10
18 10 1 1 2 -250 2 -556z m-590 -405 l0 -618 -27 -7 c-36 -10 -230 -10 -265 0
l-28 7 0 618 0 617 160 0 160 0 0 -617z"/>
</g>
</svg>
